<svg xmlns="http://www.w3.org/2000/svg" viewBox="0 0 680 440" width="680" height="440" font-family="sans-serif"><text x="340.0" y="22" fill="#888" font-size="15" font-family="sans-serif" text-anchor="middle">Fraction of final weight-variance accumulated by each schedule point</text><line x1="64" y1="384" x2="660" y2="384" stroke="#888" stroke-width="1.0"/><line x1="64" y1="44" x2="64" y2="384" stroke="#888" stroke-width="1.0"/><line x1="64.0" y1="384" x2="64.0" y2="388" stroke="#888" stroke-width="1.0"/><text x="64.0" y="402" fill="#888" font-size="13" font-family="sans-serif" text-anchor="middle">0.0</text><line x1="60" y1="384.0" x2="64" y2="384.0" stroke="#888" stroke-width="1.0"/><text x="56" y="388.0" fill="#888" font-size="13" font-family="sans-serif" text-anchor="end">0.0</text><line x1="213.0" y1="384" x2="213.0" y2="388" stroke="#888" stroke-width="1.0"/><text x="213.0" y="402" fill="#888" font-size="13" font-family="sans-serif" text-anchor="middle">0.25</text><line x1="60" y1="299.0" x2="64" y2="299.0" stroke="#888" stroke-width="1.0"/><text x="56" y="303.0" fill="#888" font-size="13" font-family="sans-serif" text-anchor="end">0.26</text><line x1="362.0" y1="384" x2="362.0" y2="388" stroke="#888" stroke-width="1.0"/><text x="362.0" y="402" fill="#888" font-size="13" font-family="sans-serif" text-anchor="middle">0.5</text><line x1="60" y1="214.0" x2="64" y2="214.0" stroke="#888" stroke-width="1.0"/><text x="56" y="218.0" fill="#888" font-size="13" font-family="sans-serif" text-anchor="end">0.52</text><line x1="511.0" y1="384" x2="511.0" y2="388" stroke="#888" stroke-width="1.0"/><text x="511.0" y="402" fill="#888" font-size="13" font-family="sans-serif" text-anchor="middle">0.75</text><line x1="60" y1="129.0" x2="64" y2="129.0" stroke="#888" stroke-width="1.0"/><text x="56" y="133.0" fill="#888" font-size="13" font-family="sans-serif" text-anchor="end">0.79</text><line x1="660.0" y1="384" x2="660.0" y2="388" stroke="#888" stroke-width="1.0"/><text x="660.0" y="402" fill="#888" font-size="13" font-family="sans-serif" text-anchor="middle">1.0</text><line x1="60" y1="44.0" x2="64" y2="44.0" stroke="#888" stroke-width="1.0"/><text x="56" y="48.0" fill="#888" font-size="13" font-family="sans-serif" text-anchor="end">1.05</text><text x="362.0" y="426" fill="#888" font-size="13" font-family="sans-serif" text-anchor="middle">annealing schedule fraction</text><text x="16" y="214.0" fill="#888" font-size="12" font-family="sans-serif" text-anchor="middle" transform="rotate(-90 16 214.0)">cumulative fraction of final variance</text><polyline fill="none" stroke="#888" stroke-width="1.0" stroke-dasharray="4,4" points="64.0,384.0 660.0,60.19"/><polyline fill="none" stroke="#f59e0b" stroke-width="2.4" points="69.96,383.69 75.92,382.81 81.88,381.44 87.84,379.66 93.8,377.52 99.76,375.11 105.72,372.46 111.68,369.59 117.64,366.56 123.6,363.37 129.56,360.01 135.52,356.49 141.48,352.85 147.44,349.07 153.4,345.13 159.36,341.09 165.32,337.04 171.28,333.0 177.24,329.03 183.2,325.11 189.16,321.16 195.12,317.28 201.08,313.37 207.04,309.4 213.0,305.44 218.96,301.44 224.92,297.49 230.88,293.51 236.84,289.53 242.8,285.67 248.76,281.83 254.72,278.07 260.68,274.33 266.64,270.61 272.6,266.91 278.56,263.23 284.52,259.54 290.48,255.82 296.44,252.11 302.4,248.44 308.36,244.77 314.32,241.16 320.28,237.57 326.24,234.06 332.2,230.56 338.16,227.12 344.12,223.68 350.08,220.27 356.04,216.92 362.0,213.51 367.96,210.09 373.92,206.71 379.88,203.28 385.84,199.83 391.8,196.41 397.76,193.01 403.72,189.59 409.68,186.18 415.64,182.79 421.6,179.42 427.56,176.04 433.52,172.66 439.48,169.29 445.44,165.96 451.4,162.6 457.36,159.28 463.32,155.98 469.28,152.7 475.24,149.46 481.2,146.3 487.16,143.18 493.12,140.09 499.08,137.03 505.04,134.04 511.0,131.13 516.96,128.24 522.92,125.36 528.88,122.48 534.84,119.62 540.8,116.74 546.76,113.93 552.72,111.15 558.68,108.35 564.64,105.51 570.6,102.64 576.56,99.76 582.52,96.87 588.48,94.03 594.44,91.18 600.4,88.27 606.36,85.34 612.32,82.44 618.28,79.57 624.24,76.73 630.2,73.93 636.16,71.17 642.12,68.41 648.08,65.65 654.04,62.91 660.0,60.19"/><polyline fill="none" stroke="#16a34a" stroke-width="2.4" points="69.96,383.09 75.92,380.86 81.88,377.79 87.84,373.97 93.8,369.93 99.76,365.72 105.72,361.39 111.68,357.14 117.64,352.77 123.6,348.28 129.56,343.84 135.52,339.31 141.48,334.81 147.44,330.05 153.4,325.4 159.36,320.99 165.32,316.66 171.28,312.43 177.24,308.23 183.2,304.01 189.16,300.0 195.12,295.9 201.08,291.97 207.04,288.17 213.0,284.17 218.96,280.11 224.92,276.09 230.88,272.13 236.84,268.37 242.8,264.75 248.76,261.38 254.72,258.09 260.68,254.51 266.64,250.91 272.6,247.33 278.56,243.94 284.52,240.54 290.48,237.18 296.44,233.81 302.4,230.34 308.36,226.88 314.32,223.31 320.28,219.82 326.24,216.4 332.2,213.14 338.16,209.95 344.12,206.9 350.08,203.86 356.04,200.93 362.0,197.92 367.96,194.95 373.92,192.01 379.88,188.87 385.84,185.81 391.8,182.72 397.76,179.8 403.72,176.97 409.68,173.84 415.64,170.74 421.6,167.81 427.56,165.01 433.52,162.19 439.48,159.37 445.44,156.65 451.4,154.03 457.36,151.41 463.32,148.87 469.28,146.08 475.24,143.28 481.2,140.55 487.16,137.75 493.12,134.88 499.08,132.02 505.04,129.21 511.0,126.36 516.96,123.6 522.92,120.84 528.88,118.19 534.84,115.63 540.8,113.15 546.76,110.6 552.72,108.01 558.68,105.25 564.64,102.46 570.6,99.74 576.56,97.11 582.52,94.49 588.48,91.88 594.44,89.15 600.4,86.32 606.36,83.54 612.32,80.9 618.28,78.28 624.24,75.67 630.2,73.13 636.16,70.52 642.12,67.99 648.08,65.41 654.04,62.82 660.0,60.19"/><polyline fill="none" stroke="#2563eb" stroke-width="2.4" points="69.96,382.72 75.92,379.72 81.88,375.63 87.84,371.19 93.8,366.64 99.76,361.96 105.72,357.48 111.68,352.63 117.64,347.52 123.6,342.54 129.56,337.48 135.52,332.36 141.48,327.51 147.44,322.87 153.4,318.36 159.36,314.02 165.32,309.42 171.28,304.94 177.24,300.3 183.2,295.67 189.16,291.17 195.12,286.56 201.08,282.21 207.04,278.03 213.0,273.62 218.96,269.35 224.92,265.31 230.88,261.22 236.84,257.33 242.8,253.28 248.76,249.12 254.72,244.96 260.68,240.94 266.64,237.26 272.6,233.64 278.56,230.01 284.52,226.42 290.48,222.98 296.44,219.68 302.4,216.31 308.36,212.88 314.32,209.36 320.28,205.93 326.24,202.51 332.2,199.02 338.16,195.88 344.12,193.04 350.08,190.0 356.04,186.77 362.0,183.47 367.96,180.32 373.92,177.38 379.88,174.56 385.84,171.56 391.8,168.58 397.76,165.59 403.72,162.54 409.68,159.49 415.64,156.62 421.6,153.78 427.56,151.29 433.52,148.7 439.48,146.12 445.44,143.59 451.4,141.15 457.36,138.78 463.32,136.38 469.28,134.21 475.24,131.88 481.2,129.5 487.16,126.92 493.12,124.43 499.08,122.28 505.04,120.25 511.0,118.25 516.96,115.99 522.92,113.86 528.88,111.59 534.84,109.26 540.8,107.0 546.76,104.74 552.72,102.37 558.68,99.83 564.64,97.39 570.6,94.97 576.56,92.51 582.52,90.03 588.48,87.58 594.44,85.12 600.4,82.87 606.36,80.63 612.32,78.38 618.28,76.01 624.24,73.79 630.2,71.59 636.16,69.45 642.12,67.09 648.08,64.68 654.04,62.37 660.0,60.19"/><line x1="82" y1="52" x2="104" y2="52" stroke="#f59e0b" stroke-width="3"/><text x="110" y="56" fill="#888" font-size="12" font-family="sans-serif" text-anchor="start">ct @4k</text><line x1="82" y1="72" x2="104" y2="72" stroke="#16a34a" stroke-width="3"/><text x="110" y="76" fill="#888" font-size="12" font-family="sans-serif" text-anchor="start">ct @16k</text><line x1="82" y1="92" x2="104" y2="92" stroke="#2563eb" stroke-width="3"/><text x="110" y="96" fill="#888" font-size="12" font-family="sans-serif" text-anchor="start">ct @24k</text><text x="481.2" y="183.23809523809524" fill="#888" font-size="11" font-family="sans-serif" text-anchor="middle">diagonal = variance injected evenly</text></svg>