<svg xmlns="http://www.w3.org/2000/svg" viewBox="0 0 680 440" width="680" height="440" font-family="sans-serif"><text x="340.0" y="22" fill="#888" font-size="15" font-family="sans-serif" text-anchor="middle">Fraction of final weight-variance accumulated by each schedule point</text><line x1="64" y1="384" x2="660" y2="384" stroke="#888" stroke-width="1.0"/><line x1="64" y1="44" x2="64" y2="384" stroke="#888" stroke-width="1.0"/><line x1="64.0" y1="384" x2="64.0" y2="388" stroke="#888" stroke-width="1.0"/><text x="64.0" y="402" fill="#888" font-size="13" font-family="sans-serif" text-anchor="middle">0.0</text><line x1="60" y1="384.0" x2="64" y2="384.0" stroke="#888" stroke-width="1.0"/><text x="56" y="388.0" fill="#888" font-size="13" font-family="sans-serif" text-anchor="end">0.0</text><line x1="213.0" y1="384" x2="213.0" y2="388" stroke="#888" stroke-width="1.0"/><text x="213.0" y="402" fill="#888" font-size="13" font-family="sans-serif" text-anchor="middle">0.25</text><line x1="60" y1="299.0" x2="64" y2="299.0" stroke="#888" stroke-width="1.0"/><text x="56" y="303.0" fill="#888" font-size="13" font-family="sans-serif" text-anchor="end">0.26</text><line x1="362.0" y1="384" x2="362.0" y2="388" stroke="#888" stroke-width="1.0"/><text x="362.0" y="402" fill="#888" font-size="13" font-family="sans-serif" text-anchor="middle">0.5</text><line x1="60" y1="214.0" x2="64" y2="214.0" stroke="#888" stroke-width="1.0"/><text x="56" y="218.0" fill="#888" font-size="13" font-family="sans-serif" text-anchor="end">0.52</text><line x1="511.0" y1="384" x2="511.0" y2="388" stroke="#888" stroke-width="1.0"/><text x="511.0" y="402" fill="#888" font-size="13" font-family="sans-serif" text-anchor="middle">0.75</text><line x1="60" y1="129.0" x2="64" y2="129.0" stroke="#888" stroke-width="1.0"/><text x="56" y="133.0" fill="#888" font-size="13" font-family="sans-serif" text-anchor="end">0.79</text><line x1="660.0" y1="384" x2="660.0" y2="388" stroke="#888" stroke-width="1.0"/><text x="660.0" y="402" fill="#888" font-size="13" font-family="sans-serif" text-anchor="middle">1.0</text><line x1="60" y1="44.0" x2="64" y2="44.0" stroke="#888" stroke-width="1.0"/><text x="56" y="48.0" fill="#888" font-size="13" font-family="sans-serif" text-anchor="end">1.05</text><text x="362.0" y="426" fill="#888" font-size="13" font-family="sans-serif" text-anchor="middle">annealing schedule fraction</text><text x="16" y="214.0" fill="#888" font-size="12" font-family="sans-serif" text-anchor="middle" transform="rotate(-90 16 214.0)">cumulative fraction of final variance</text><polyline fill="none" stroke="#888" stroke-width="1.0" stroke-dasharray="4,4" points="64.0,384.0 660.0,60.19"/><polyline fill="none" stroke="#f59e0b" stroke-width="2.4" points="69.96,383.88 75.92,383.54 81.88,382.98 87.84,382.22 93.8,381.27 99.76,380.14 105.72,378.83 111.68,377.36 117.64,375.74 123.6,373.96 129.56,372.04 135.52,369.98 141.48,367.79 147.44,365.48 153.4,363.06 159.36,360.54 165.32,357.92 171.28,355.22 177.24,352.42 183.2,349.57 189.16,346.65 195.12,343.65 201.08,340.58 207.04,337.46 213.0,334.29 218.96,331.08 224.92,327.83 230.88,324.55 236.84,321.22 242.8,317.85 248.76,314.44 254.72,310.99 260.68,307.5 266.64,303.99 272.6,300.44 278.56,296.87 284.52,293.3 290.48,289.72 296.44,286.15 302.4,282.57 308.36,278.97 314.32,275.38 320.28,271.8 326.24,268.19 332.2,264.54 338.16,260.86 344.12,257.19 350.08,253.5 356.04,249.81 362.0,246.11 367.96,242.39 373.92,238.67 379.88,234.93 385.84,231.17 391.8,227.42 397.76,223.68 403.72,219.94 409.68,216.2 415.64,212.43 421.6,208.65 427.56,204.87 433.52,201.09 439.48,197.3 445.44,193.51 451.4,189.74 457.36,185.98 463.32,182.26 469.28,178.53 475.24,174.8 481.2,171.07 487.16,167.35 493.12,163.63 499.08,159.91 505.04,156.22 511.0,152.55 516.96,148.89 522.92,145.21 528.88,141.53 534.84,137.84 540.8,134.14 546.76,130.45 552.72,126.75 558.68,123.05 564.64,119.35 570.6,115.65 576.56,111.94 582.52,108.24 588.48,104.55 594.44,100.88 600.4,97.22 606.36,93.55 612.32,89.88 618.28,86.2 624.24,82.5 630.2,78.8 636.16,75.09 642.12,71.38 648.08,67.66 654.04,63.93 660.0,60.19"/><polyline fill="none" stroke="#16a34a" stroke-width="2.4" points="69.96,383.64 75.92,382.66 81.88,381.13 87.84,379.13 93.8,376.74 99.76,374.08 105.72,371.16 111.68,368.06 117.64,364.77 123.6,361.33 129.56,357.74 135.52,353.98 141.48,350.14 147.44,346.26 153.4,342.39 159.36,338.5 165.32,334.65 171.28,330.75 177.24,326.88 183.2,323.08 189.16,319.26 195.12,315.43 201.08,311.66 207.04,307.92 213.0,304.22 218.96,300.55 224.92,296.87 230.88,293.16 236.84,289.49 242.8,285.84 248.76,282.21 254.72,278.64 260.68,275.06 266.64,271.42 272.6,267.77 278.56,264.2 284.52,260.67 290.48,257.2 296.44,253.77 302.4,250.36 308.36,246.92 314.32,243.49 320.28,240.05 326.24,236.58 332.2,233.12 338.16,229.69 344.12,226.25 350.08,222.86 356.04,219.5 362.0,216.18 367.96,212.91 373.92,209.67 379.88,206.46 385.84,203.27 391.8,200.14 397.76,197.01 403.72,193.87 409.68,190.71 415.64,187.55 421.6,184.37 427.56,181.19 433.52,178.03 439.48,174.9 445.44,171.75 451.4,168.63 457.36,165.54 463.32,162.45 469.28,159.36 475.24,156.31 481.2,153.3 487.16,150.29 493.12,147.31 499.08,144.35 505.04,141.38 511.0,138.38 516.96,135.44 522.92,132.54 528.88,129.62 534.84,126.67 540.8,123.7 546.76,120.7 552.72,117.66 558.68,114.58 564.64,111.45 570.6,108.31 576.56,105.17 582.52,101.98 588.48,98.81 594.44,95.6 600.4,92.36 606.36,89.14 612.32,85.89 618.28,82.65 624.24,79.39 630.2,76.16 636.16,72.96 642.12,69.78 648.08,66.62 654.04,63.42 660.0,60.19"/><polyline fill="none" stroke="#2563eb" stroke-width="2.4" points="69.96,383.48 75.92,382.09 81.88,379.97 87.84,377.31 93.8,374.22 99.76,370.81 105.72,367.2 111.68,363.44 117.64,359.55 123.6,355.6 129.56,351.54 135.52,347.54 141.48,343.56 147.44,339.64 153.4,335.72 159.36,331.82 165.32,327.92 171.28,323.98 177.24,320.04 183.2,316.19 189.16,312.46 195.12,308.77 201.08,305.17 207.04,301.64 213.0,298.07 218.96,294.51 224.92,290.96 230.88,287.5 236.84,284.1 242.8,280.68 248.76,277.23 254.72,273.77 260.68,270.36 266.64,266.98 272.6,263.57 278.56,260.18 284.52,256.82 290.48,253.43 296.44,250.05 302.4,246.7 308.36,243.38 314.32,240.13 320.28,236.84 326.24,233.53 332.2,230.24 338.16,227.03 344.12,223.84 350.08,220.72 356.04,217.63 362.0,214.65 367.96,211.71 373.92,208.7 379.88,205.69 385.84,202.62 391.8,199.59 397.76,196.46 403.72,193.33 409.68,190.19 415.64,187.04 421.6,183.91 427.56,180.73 433.52,177.58 439.48,174.47 445.44,171.41 451.4,168.29 457.36,165.18 463.32,162.05 469.28,158.87 475.24,155.71 481.2,152.56 487.16,149.39 493.12,146.25 499.08,143.13 505.04,140.02 511.0,136.85 516.96,133.72 522.92,130.58 528.88,127.47 534.84,124.36 540.8,121.26 546.76,118.2 552.72,115.13 558.68,112.05 564.64,108.99 570.6,105.88 576.56,102.81 582.52,99.75 588.48,96.65 594.44,93.58 600.4,90.55 606.36,87.48 612.32,84.4 618.28,81.34 624.24,78.32 630.2,75.27 636.16,72.22 642.12,69.21 648.08,66.22 654.04,63.21 660.0,60.19"/><line x1="82" y1="52" x2="104" y2="52" stroke="#f59e0b" stroke-width="3"/><text x="110" y="56" fill="#888" font-size="12" font-family="sans-serif" text-anchor="start">nc @4k</text><line x1="82" y1="72" x2="104" y2="72" stroke="#16a34a" stroke-width="3"/><text x="110" y="76" fill="#888" font-size="12" font-family="sans-serif" text-anchor="start">nc @16k</text><line x1="82" y1="92" x2="104" y2="92" stroke="#2563eb" stroke-width="3"/><text x="110" y="96" fill="#888" font-size="12" font-family="sans-serif" text-anchor="start">nc @24k</text><text x="481.2" y="183.23809523809524" fill="#888" font-size="11" font-family="sans-serif" text-anchor="middle">diagonal = variance injected evenly</text></svg>